<mxfile host="app.diagrams.net" agent="Mozilla/5.0 (Macintosh; Intel Mac OS X 10_15_7) AppleWebKit/537.36 (KHTML, like Gecko) Chrome/131.0.0.0 Safari/537.36" version="25.0.3">
  <diagram name="AIP Context Diagram" id="1qHbh-9cSkErA29mr3Ee">
    <mxGraphModel dx="3804" dy="1073" grid="1" gridSize="10" guides="1" tooltips="1" connect="1" arrows="1" fold="1" page="1" pageScale="1" pageWidth="850" pageHeight="1100" math="0" shadow="0">
      <root>
        <mxCell id="0" />
        <mxCell id="1" parent="0" />
        <mxCell id="_jAo2ijFItzjOCohWhXb-1" value="Legend" style="shape=table;startSize=30;container=1;collapsible=0;childLayout=tableLayout;fontSize=16;align=left;verticalAlign=top;fillColor=none;strokeColor=none;fontColor=#4D4D4D;fontStyle=1;spacingLeft=6;spacing=0;resizable=0;shadow=1;fontFamily=Times New Roman;" parent="1" vertex="1">
          <mxGeometry x="-130" y="820" width="180" height="210" as="geometry" />
        </mxCell>
        <mxCell id="_jAo2ijFItzjOCohWhXb-2" value="" style="shape=tableRow;horizontal=0;startSize=0;swimlaneHead=0;swimlaneBody=0;strokeColor=inherit;top=0;left=0;bottom=0;right=0;collapsible=0;dropTarget=0;fillColor=none;points=[[0,0.5],[1,0.5]];portConstraint=eastwest;fontSize=12;shadow=1;fontFamily=Times New Roman;" parent="_jAo2ijFItzjOCohWhXb-1" vertex="1">
          <mxGeometry y="30" width="180" height="30" as="geometry" />
        </mxCell>
        <mxCell id="_jAo2ijFItzjOCohWhXb-3" value="Person" style="shape=partialRectangle;html=1;whiteSpace=wrap;connectable=0;strokeColor=inherit;overflow=hidden;fillColor=#1E4074;top=0;left=0;bottom=0;right=0;pointerEvents=1;fontSize=12;align=left;fontColor=#FFFFFF;gradientColor=none;spacingLeft=10;spacingRight=4;shadow=1;fontFamily=Times New Roman;" parent="_jAo2ijFItzjOCohWhXb-2" vertex="1">
          <mxGeometry width="180" height="30" as="geometry">
            <mxRectangle width="180" height="30" as="alternateBounds" />
          </mxGeometry>
        </mxCell>
        <mxCell id="_jAo2ijFItzjOCohWhXb-4" value="" style="shape=tableRow;horizontal=0;startSize=0;swimlaneHead=0;swimlaneBody=0;strokeColor=inherit;top=0;left=0;bottom=0;right=0;collapsible=0;dropTarget=0;fillColor=none;points=[[0,0.5],[1,0.5]];portConstraint=eastwest;fontSize=12;shadow=1;fontFamily=Times New Roman;" parent="_jAo2ijFItzjOCohWhXb-1" vertex="1">
          <mxGeometry y="60" width="180" height="30" as="geometry" />
        </mxCell>
        <mxCell id="_jAo2ijFItzjOCohWhXb-5" value="Software System" style="shape=partialRectangle;html=1;whiteSpace=wrap;connectable=0;strokeColor=inherit;overflow=hidden;fillColor=#3162AF;top=0;left=0;bottom=0;right=0;pointerEvents=1;fontSize=12;align=left;fontColor=#FFFFFF;gradientColor=none;spacingLeft=10;spacingRight=4;shadow=1;fontFamily=Times New Roman;" parent="_jAo2ijFItzjOCohWhXb-4" vertex="1">
          <mxGeometry width="180" height="30" as="geometry">
            <mxRectangle width="180" height="30" as="alternateBounds" />
          </mxGeometry>
        </mxCell>
        <mxCell id="_jAo2ijFItzjOCohWhXb-6" value="" style="shape=tableRow;horizontal=0;startSize=0;swimlaneHead=0;swimlaneBody=0;strokeColor=inherit;top=0;left=0;bottom=0;right=0;collapsible=0;dropTarget=0;fillColor=none;points=[[0,0.5],[1,0.5]];portConstraint=eastwest;fontSize=12;shadow=1;fontFamily=Times New Roman;" parent="_jAo2ijFItzjOCohWhXb-1" vertex="1">
          <mxGeometry y="90" width="180" height="30" as="geometry" />
        </mxCell>
        <mxCell id="_jAo2ijFItzjOCohWhXb-7" value="Container" style="shape=partialRectangle;html=1;whiteSpace=wrap;connectable=0;strokeColor=inherit;overflow=hidden;fillColor=#52a2d8;top=0;left=0;bottom=0;right=0;pointerEvents=1;fontSize=12;align=left;fontColor=#FFFFFF;gradientColor=none;spacingLeft=10;spacingRight=4;shadow=1;fontFamily=Times New Roman;" parent="_jAo2ijFItzjOCohWhXb-6" vertex="1">
          <mxGeometry width="180" height="30" as="geometry">
            <mxRectangle width="180" height="30" as="alternateBounds" />
          </mxGeometry>
        </mxCell>
        <mxCell id="_jAo2ijFItzjOCohWhXb-8" value="" style="shape=tableRow;horizontal=0;startSize=0;swimlaneHead=0;swimlaneBody=0;strokeColor=inherit;top=0;left=0;bottom=0;right=0;collapsible=0;dropTarget=0;fillColor=none;points=[[0,0.5],[1,0.5]];portConstraint=eastwest;fontSize=12;shadow=1;fontFamily=Times New Roman;" parent="_jAo2ijFItzjOCohWhXb-1" vertex="1">
          <mxGeometry y="120" width="180" height="30" as="geometry" />
        </mxCell>
        <mxCell id="_jAo2ijFItzjOCohWhXb-9" value="Component" style="shape=partialRectangle;html=1;whiteSpace=wrap;connectable=0;strokeColor=inherit;overflow=hidden;fillColor=#7dbef2;top=0;left=0;bottom=0;right=0;pointerEvents=1;fontSize=12;align=left;fontColor=#FFFFFF;gradientColor=none;spacingLeft=10;spacingRight=4;shadow=1;fontFamily=Times New Roman;" parent="_jAo2ijFItzjOCohWhXb-8" vertex="1">
          <mxGeometry width="180" height="30" as="geometry">
            <mxRectangle width="180" height="30" as="alternateBounds" />
          </mxGeometry>
        </mxCell>
        <mxCell id="_jAo2ijFItzjOCohWhXb-10" value="" style="shape=tableRow;horizontal=0;startSize=0;swimlaneHead=0;swimlaneBody=0;strokeColor=inherit;top=0;left=0;bottom=0;right=0;collapsible=0;dropTarget=0;fillColor=none;points=[[0,0.5],[1,0.5]];portConstraint=eastwest;fontSize=12;shadow=1;fontFamily=Times New Roman;" parent="_jAo2ijFItzjOCohWhXb-1" vertex="1">
          <mxGeometry y="150" width="180" height="30" as="geometry" />
        </mxCell>
        <mxCell id="_jAo2ijFItzjOCohWhXb-11" value="External Person" style="shape=partialRectangle;html=1;whiteSpace=wrap;connectable=0;strokeColor=inherit;overflow=hidden;fillColor=#6b6477;top=0;left=0;bottom=0;right=0;pointerEvents=1;fontSize=12;align=left;fontColor=#FFFFFF;gradientColor=none;spacingLeft=10;spacingRight=4;shadow=1;fontFamily=Times New Roman;" parent="_jAo2ijFItzjOCohWhXb-10" vertex="1">
          <mxGeometry width="180" height="30" as="geometry">
            <mxRectangle width="180" height="30" as="alternateBounds" />
          </mxGeometry>
        </mxCell>
        <mxCell id="_jAo2ijFItzjOCohWhXb-12" value="" style="shape=tableRow;horizontal=0;startSize=0;swimlaneHead=0;swimlaneBody=0;strokeColor=inherit;top=0;left=0;bottom=0;right=0;collapsible=0;dropTarget=0;fillColor=none;points=[[0,0.5],[1,0.5]];portConstraint=eastwest;fontSize=12;shadow=1;fontFamily=Times New Roman;" parent="_jAo2ijFItzjOCohWhXb-1" vertex="1">
          <mxGeometry y="180" width="180" height="30" as="geometry" />
        </mxCell>
        <mxCell id="_jAo2ijFItzjOCohWhXb-13" value="External Software System" style="shape=partialRectangle;html=1;whiteSpace=wrap;connectable=0;strokeColor=inherit;overflow=hidden;fillColor=#000000;top=0;left=0;bottom=0;right=0;pointerEvents=1;fontSize=12;align=left;fontColor=#FFFFFF;gradientColor=none;spacingLeft=10;spacingRight=4;shadow=1;fontFamily=Times New Roman;" parent="_jAo2ijFItzjOCohWhXb-12" vertex="1">
          <mxGeometry width="180" height="30" as="geometry">
            <mxRectangle width="180" height="30" as="alternateBounds" />
          </mxGeometry>
        </mxCell>
        <object placeholders="1" c4Name="Data User" c4Type="Person" c4Description="A user of integration platform, with data transmission requirements" label="&lt;font style=&quot;font-size: 16px&quot;&gt;&lt;b&gt;%c4Name%&lt;/b&gt;&lt;/font&gt;&lt;div&gt;[%c4Type%]&lt;/div&gt;&lt;br&gt;&lt;div&gt;&lt;font style=&quot;font-size: 11px&quot;&gt;&lt;font color=&quot;#cccccc&quot;&gt;%c4Description%&lt;/font&gt;&lt;/font&gt;&lt;/div&gt;" id="_jAo2ijFItzjOCohWhXb-14">
          <mxCell style="html=1;fontSize=11;dashed=0;whiteSpace=wrap;fillColor=#083F75;strokeColor=#06315C;fontColor=#ffffff;shape=mxgraph.c4.person2;align=center;metaEdit=1;points=[[0.5,0,0],[1,0.5,0],[1,0.75,0],[0.75,1,0],[0.5,1,0],[0.25,1,0],[0,0.75,0],[0,0.5,0]];resizable=0;shadow=1;fontFamily=Times New Roman;" parent="1" vertex="1">
            <mxGeometry x="-30" y="80" width="200" height="180" as="geometry" />
          </mxCell>
        </object>
        <mxCell id="_jAo2ijFItzjOCohWhXb-31" value="Distribute files to" style="rounded=0;orthogonalLoop=1;jettySize=auto;html=1;exitX=1;exitY=0.75;exitDx=0;exitDy=0;exitPerimeter=0;fontFamily=Times New Roman;dashed=1;dashPattern=8 8;flowAnimation=1;shadow=1;edgeStyle=entityRelationEdgeStyle;strokeColor=#828282;strokeWidth=2;" parent="1" source="_jAo2ijFItzjOCohWhXb-17" target="_jAo2ijFItzjOCohWhXb-30" edge="1">
          <mxGeometry x="-0.0549" y="5" relative="1" as="geometry">
            <mxPoint as="offset" />
          </mxGeometry>
        </mxCell>
        <object placeholders="1" c4Name="Data Integration Platform" c4Type="Software System" c4Description="Responsible for retrieving files from upstream and distributing them to downstream." label="&lt;font style=&quot;font-size: 16px&quot;&gt;&lt;span&gt;%c4Name%&lt;/span&gt;&lt;/font&gt;&lt;div&gt;[%c4Type%]&lt;/div&gt;&lt;br&gt;&lt;div&gt;&lt;font style=&quot;font-size: 11px&quot;&gt;&lt;font color=&quot;#cccccc&quot;&gt;%c4Description%&lt;/font&gt;&lt;/font&gt;&lt;/div&gt;" id="_jAo2ijFItzjOCohWhXb-17">
          <mxCell style="rounded=1;whiteSpace=wrap;html=1;labelBackgroundColor=none;fillColor=#3162AF;fontColor=#ffffff;align=center;arcSize=10;strokeColor=#006EAF;metaEdit=1;resizable=0;points=[[0.25,0,0],[0.5,0,0],[0.75,0,0],[1,0.25,0],[1,0.5,0],[1,0.75,0],[0.75,1,0],[0.5,1,0],[0.25,1,0],[0,0.75,0],[0,0.5,0],[0,0.25,0]];fontStyle=1;glass=0;shadow=1;fontFamily=Times New Roman;" parent="1" vertex="1">
            <mxGeometry x="300" y="480" width="240" height="120" as="geometry" />
          </mxCell>
        </object>
        <object placeholders="1" c4Name="Upstream External System" c4Type="External Software System" c4Description="Publishes the banking information about customers,accounts,transactions,esg,etc" label="&lt;font style=&quot;font-size: 16px&quot;&gt;&lt;span&gt;%c4Name%&lt;/span&gt;&lt;/font&gt;&lt;div&gt;[%c4Type%]&lt;/div&gt;&lt;br&gt;&lt;div&gt;&lt;font style=&quot;font-size: 11px&quot;&gt;&lt;font color=&quot;#cccccc&quot;&gt;%c4Description%&lt;/font&gt;&lt;/font&gt;&lt;/div&gt;" id="_jAo2ijFItzjOCohWhXb-20">
          <mxCell style="rounded=1;whiteSpace=wrap;html=1;labelBackgroundColor=none;fillColor=#1A1A1A;fontColor=#ffffff;align=center;arcSize=10;strokeColor=#1A1A1A;metaEdit=1;resizable=0;points=[[0.25,0,0],[0.5,0,0],[0.75,0,0],[1,0.25,0],[1,0.5,0],[1,0.75,0],[0.75,1,0],[0.5,1,0],[0.25,1,0],[0,0.75,0],[0,0.5,0],[0,0.25,0]];fontStyle=1;shadow=1;fontFamily=Times New Roman;" parent="1" vertex="1">
            <mxGeometry x="-130" y="390" width="240" height="120" as="geometry" />
          </mxCell>
        </object>
        <object placeholders="1" c4Name="Upstream Internal System" c4Type="Software System" c4Description="Publishes the banking information about customers,trade,accounts,transactions,etc" label="&lt;font style=&quot;font-size: 16px&quot;&gt;&lt;b&gt;%c4Name%&lt;/b&gt;&lt;/font&gt;&lt;div&gt;[%c4Type%]&lt;/div&gt;&lt;br&gt;&lt;div&gt;&lt;font style=&quot;font-size: 11px&quot;&gt;&lt;font color=&quot;#cccccc&quot;&gt;%c4Description%&lt;/font&gt;&lt;/font&gt;&lt;/div&gt;" id="_jAo2ijFItzjOCohWhXb-24">
          <mxCell style="rounded=1;whiteSpace=wrap;html=1;labelBackgroundColor=none;fillColor=#1A1A1A;fontColor=#ffffff;align=center;arcSize=10;strokeColor=#1A1A1A;metaEdit=1;resizable=0;points=[[0.25,0,0],[0.5,0,0],[0.75,0,0],[1,0.25,0],[1,0.5,0],[1,0.75,0],[0.75,1,0],[0.5,1,0],[0.25,1,0],[0,0.75,0],[0,0.5,0],[0,0.25,0]];shadow=1;fontFamily=Times New Roman;" parent="1" vertex="1">
            <mxGeometry x="-130" y="570" width="240" height="120" as="geometry" />
          </mxCell>
        </object>
        <object placeholders="1" c4Name="Downstream External System" c4Type="External Software System" c4Description="Subscribes the banking information about customers,accounts,transactions,esg,etc" label="&lt;font style=&quot;font-size: 16px&quot;&gt;&lt;span&gt;%c4Name%&lt;/span&gt;&lt;/font&gt;&lt;div&gt;[%c4Type%]&lt;/div&gt;&lt;br&gt;&lt;div&gt;&lt;font style=&quot;font-size: 11px&quot;&gt;&lt;font color=&quot;#cccccc&quot;&gt;%c4Description%&lt;/font&gt;&lt;/font&gt;&lt;/div&gt;" id="_jAo2ijFItzjOCohWhXb-28">
          <mxCell style="rounded=1;whiteSpace=wrap;html=1;labelBackgroundColor=none;fillColor=#1A1A1A;fontColor=#ffffff;align=center;arcSize=10;strokeColor=#736782;metaEdit=1;resizable=0;points=[[0.25,0,0],[0.5,0,0],[0.75,0,0],[1,0.25,0],[1,0.5,0],[1,0.75,0],[0.75,1,0],[0.5,1,0],[0.25,1,0],[0,0.75,0],[0,0.5,0],[0,0.25,0]];fontStyle=1;glass=0;shadow=1;fontFamily=Times New Roman;" parent="1" vertex="1">
            <mxGeometry x="750" y="380" width="240" height="120" as="geometry" />
          </mxCell>
        </object>
        <object placeholders="1" c4Name="Downstream Internal System" c4Type="Software System" c4Description="Subscribes the banking information about customers,trade,accounts,transactions,etc" label="&lt;font style=&quot;font-size: 16px&quot;&gt;&lt;b&gt;%c4Name%&lt;/b&gt;&lt;/font&gt;&lt;div&gt;[%c4Type%]&lt;/div&gt;&lt;br&gt;&lt;div&gt;&lt;font style=&quot;font-size: 11px&quot;&gt;&lt;font color=&quot;#cccccc&quot;&gt;%c4Description%&lt;/font&gt;&lt;/font&gt;&lt;/div&gt;" id="_jAo2ijFItzjOCohWhXb-30">
          <mxCell style="rounded=1;whiteSpace=wrap;html=1;labelBackgroundColor=none;fillColor=#1A1A1A;fontColor=#ffffff;align=center;arcSize=10;strokeColor=#1A1A1A;metaEdit=1;resizable=0;points=[[0.25,0,0],[0.5,0,0],[0.75,0,0],[1,0.25,0],[1,0.5,0],[1,0.75,0],[0.75,1,0],[0.5,1,0],[0.25,1,0],[0,0.75,0],[0,0.5,0],[0,0.25,0]];glass=0;shadow=1;fontFamily=Times New Roman;" parent="1" vertex="1">
            <mxGeometry x="750" y="560" width="240" height="120" as="geometry" />
          </mxCell>
        </object>
        <mxCell id="_jAo2ijFItzjOCohWhXb-33" value="Retrieve files from" style="rounded=0;orthogonalLoop=1;jettySize=auto;html=1;entryX=0;entryY=0.75;entryDx=0;entryDy=0;entryPerimeter=0;fontFamily=Times New Roman;startArrow=classic;startFill=1;endArrow=none;endFill=0;dashed=1;dashPattern=8 8;flowAnimation=1;shadow=1;edgeStyle=entityRelationEdgeStyle;strokeColor=#828282;strokeWidth=2;" parent="1" source="_jAo2ijFItzjOCohWhXb-24" target="_jAo2ijFItzjOCohWhXb-17" edge="1">
          <mxGeometry relative="1" as="geometry" />
        </mxCell>
        <mxCell id="_jAo2ijFItzjOCohWhXb-34" value="Distribute files to" style="rounded=0;orthogonalLoop=1;jettySize=auto;html=1;entryX=1;entryY=0.25;entryDx=0;entryDy=0;entryPerimeter=0;fontFamily=Times New Roman;startArrow=classic;startFill=1;endArrow=none;endFill=0;dashed=1;dashPattern=8 8;flowAnimation=1;shadow=1;edgeStyle=entityRelationEdgeStyle;strokeColor=#828282;strokeWidth=2;" parent="1" source="_jAo2ijFItzjOCohWhXb-28" target="_jAo2ijFItzjOCohWhXb-17" edge="1">
          <mxGeometry relative="1" as="geometry" />
        </mxCell>
        <mxCell id="_jAo2ijFItzjOCohWhXb-32" value="Retrieve files from" style="rounded=0;orthogonalLoop=1;jettySize=auto;html=1;exitX=1;exitY=0.5;exitDx=0;exitDy=0;exitPerimeter=0;entryX=0;entryY=0.25;entryDx=0;entryDy=0;entryPerimeter=0;fontFamily=Times New Roman;startArrow=classic;startFill=1;endArrow=none;endFill=0;dashed=1;dashPattern=12 12;flowAnimation=1;shadow=1;edgeStyle=entityRelationEdgeStyle;strokeColor=#828282;strokeWidth=2;" parent="1" source="_jAo2ijFItzjOCohWhXb-20" target="_jAo2ijFItzjOCohWhXb-17" edge="1">
          <mxGeometry relative="1" as="geometry" />
        </mxCell>
        <object placeholders="1" c4Name="[System Context] Data integration platform" c4Type="ContainerScopeBoundary" c4Description="Showing the high-level interactions with the data integration platform" label="&lt;font style=&quot;font-size: 16px&quot;&gt;&lt;b&gt;&lt;div style=&quot;text-align: left&quot;&gt;%c4Name%&lt;/div&gt;&lt;/b&gt;&lt;/font&gt;&lt;div style=&quot;text-align: left&quot;&gt;%c4Description%&lt;/div&gt;" id="_jAo2ijFItzjOCohWhXb-36">
          <mxCell style="text;html=1;strokeColor=none;fillColor=none;align=left;verticalAlign=top;whiteSpace=wrap;rounded=0;metaEdit=1;allowArrows=0;resizable=1;rotatable=0;connectable=0;recursiveResize=0;expand=0;pointerEvents=0;points=[[0.25,0,0],[0.5,0,0],[0.75,0,0],[1,0.25,0],[1,0.5,0],[1,0.75,0],[0.75,1,0],[0.5,1,0],[0.25,1,0],[0,0.75,0],[0,0.5,0],[0,0.25,0]];fontFamily=Times New Roman;" parent="1" vertex="1">
            <mxGeometry x="-130" y="720" width="550" height="50" as="geometry" />
          </mxCell>
        </object>
        <object placeholders="1" c4Name="IT Support Staff" c4Type="Person" c4Description="An IT Support for integration platform" label="&lt;font style=&quot;font-size: 16px&quot;&gt;&lt;b&gt;%c4Name%&lt;/b&gt;&lt;/font&gt;&lt;div&gt;[%c4Type%]&lt;/div&gt;&lt;br&gt;&lt;div&gt;&lt;font style=&quot;font-size: 11px&quot;&gt;&lt;font color=&quot;#cccccc&quot;&gt;%c4Description%&lt;/font&gt;&lt;/font&gt;&lt;/div&gt;" id="_jAo2ijFItzjOCohWhXb-37">
          <mxCell style="html=1;fontSize=11;dashed=0;whiteSpace=wrap;fillColor=#083F75;strokeColor=#06315C;fontColor=#ffffff;shape=mxgraph.c4.person2;align=center;metaEdit=1;points=[[0.5,0,0],[1,0.5,0],[1,0.75,0],[0.75,1,0],[0.5,1,0],[0.25,1,0],[0,0.75,0],[0,0.5,0]];resizable=0;shadow=1;fontFamily=Times New Roman;" parent="1" vertex="1">
            <mxGeometry x="720" y="80" width="200" height="180" as="geometry" />
          </mxCell>
        </object>
        <object placeholders="1" c4Name="Admin" c4Type="Person" c4Description="System admin of integration platform" label="&lt;font style=&quot;font-size: 16px&quot;&gt;&lt;b&gt;%c4Name%&lt;/b&gt;&lt;/font&gt;&lt;div&gt;[%c4Type%]&lt;/div&gt;&lt;br&gt;&lt;div&gt;&lt;font style=&quot;font-size: 11px&quot;&gt;&lt;font color=&quot;#cccccc&quot;&gt;%c4Description%&lt;/font&gt;&lt;/font&gt;&lt;/div&gt;" id="_y18ux8Sn_X_Ff07gXBw-8">
          <mxCell style="html=1;fontSize=11;dashed=0;whiteSpace=wrap;fillColor=#083F75;strokeColor=#06315C;fontColor=#ffffff;shape=mxgraph.c4.person2;align=center;metaEdit=1;points=[[0.5,0,0],[1,0.5,0],[1,0.75,0],[0.75,1,0],[0.5,1,0],[0.25,1,0],[0,0.75,0],[0,0.5,0]];resizable=0;shadow=1;fontFamily=Times New Roman;" vertex="1" parent="1">
            <mxGeometry x="320" y="750" width="200" height="180" as="geometry" />
          </mxCell>
        </object>
        <object placeholders="1" c4Type="Relationship" id="_y18ux8Sn_X_Ff07gXBw-10">
          <mxCell style="endArrow=blockThin;html=1;fontSize=10;fontColor=#404040;strokeWidth=2;endFill=1;strokeColor=#828282;elbow=vertical;metaEdit=1;endSize=14;startSize=14;jumpStyle=arc;jumpSize=16;rounded=0;edgeStyle=orthogonalEdgeStyle;exitX=0.5;exitY=0;exitDx=0;exitDy=0;exitPerimeter=0;entryX=0.5;entryY=1;entryDx=0;entryDy=0;entryPerimeter=0;dashed=1;dashPattern=8 8;flowAnimation=1;" edge="1" parent="1" source="_y18ux8Sn_X_Ff07gXBw-8" target="_jAo2ijFItzjOCohWhXb-17">
            <mxGeometry width="240" relative="1" as="geometry">
              <mxPoint x="520" y="510" as="sourcePoint" />
              <mxPoint x="760" y="510" as="targetPoint" />
            </mxGeometry>
          </mxCell>
        </object>
        <mxCell id="_y18ux8Sn_X_Ff07gXBw-18" value="Manage datafeed using" style="edgeLabel;html=1;align=center;verticalAlign=middle;resizable=0;points=[];" vertex="1" connectable="0" parent="_y18ux8Sn_X_Ff07gXBw-10">
          <mxGeometry x="-0.04" y="-1" relative="1" as="geometry">
            <mxPoint as="offset" />
          </mxGeometry>
        </mxCell>
        <object placeholders="1" c4Type="View transfer status using" id="_y18ux8Sn_X_Ff07gXBw-12">
          <mxCell style="endArrow=blockThin;html=1;fontSize=10;fontColor=#404040;strokeWidth=2;endFill=1;strokeColor=#828282;elbow=vertical;metaEdit=1;endSize=14;startSize=14;jumpStyle=arc;jumpSize=16;rounded=0;edgeStyle=orthogonalEdgeStyle;entryX=0.25;entryY=0;entryDx=0;entryDy=0;entryPerimeter=0;curved=1;dashed=1;dashPattern=8 8;flowAnimation=1;" edge="1" parent="1" target="_jAo2ijFItzjOCohWhXb-17">
            <mxGeometry width="240" relative="1" as="geometry">
              <mxPoint x="170" y="200" as="sourcePoint" />
              <mxPoint x="410" y="200" as="targetPoint" />
            </mxGeometry>
          </mxCell>
        </object>
        <mxCell id="_y18ux8Sn_X_Ff07gXBw-16" value="View transfer status using" style="edgeLabel;html=1;align=center;verticalAlign=middle;resizable=0;points=[];" vertex="1" connectable="0" parent="_y18ux8Sn_X_Ff07gXBw-12">
          <mxGeometry x="0.1778" y="-35" relative="1" as="geometry">
            <mxPoint y="1" as="offset" />
          </mxGeometry>
        </mxCell>
        <object placeholders="1" c4Type="Relationship" id="_y18ux8Sn_X_Ff07gXBw-13">
          <mxCell style="endArrow=blockThin;html=1;fontSize=10;fontColor=#404040;strokeWidth=2;endFill=1;strokeColor=#828282;elbow=vertical;metaEdit=1;endSize=14;startSize=14;jumpStyle=arc;jumpSize=16;rounded=0;edgeStyle=orthogonalEdgeStyle;entryX=0.75;entryY=0;entryDx=0;entryDy=0;entryPerimeter=0;curved=1;dashed=1;dashPattern=8 8;flowAnimation=1;" edge="1" parent="1" target="_jAo2ijFItzjOCohWhXb-17">
            <mxGeometry width="240" relative="1" as="geometry">
              <mxPoint x="720" y="200" as="sourcePoint" />
              <mxPoint x="540" y="390" as="targetPoint" />
            </mxGeometry>
          </mxCell>
        </object>
        <mxCell id="_y18ux8Sn_X_Ff07gXBw-17" value="Resend files using" style="edgeLabel;html=1;align=center;verticalAlign=middle;resizable=0;points=[];" vertex="1" connectable="0" parent="_y18ux8Sn_X_Ff07gXBw-13">
          <mxGeometry x="0.2531" y="46" relative="1" as="geometry">
            <mxPoint y="1" as="offset" />
          </mxGeometry>
        </mxCell>
      </root>
    </mxGraphModel>
  </diagram>
</mxfile>
